<svg width="200" height="200" viewBox="0 0 200 200" fill="none" xmlns="http://www.w3.org/2000/svg">
<rect width="200" height="200" fill="url(#paint0_linear)"/>
<path d="M101.525 56.4824C98.804 56.1902 96.8787 59.387 98.3768 61.641C98.4114 61.681 98.446 61.7156 98.4859 61.7487L104.073 68.3746L98.92 72.5012C98.8647 72.5358 98.8109 72.5689 98.7571 72.6089C97.9497 73.4171 97.7468 74.7621 98.1602 75.7034C98.5751 76.647 99.5316 77.3338 100.656 77.3338H104.94C105.807 84.2888 111.718 89.5066 118.72 89.4966C126.27 89.5082 132.441 83.4752 132.608 75.921V75.8688C132.615 75.778 132.615 75.6865 132.608 75.5958V68.9168C132.615 68.8299 132.615 68.7337 132.608 68.6453V61.3703C132.616 60.469 131.932 59.7139 131.035 59.6323L101.578 56.4824H101.525ZM101.525 60.0115L129.136 62.8884V66.9081H107.383L101.525 60.0115ZM77.7082 66.9081C77.4916 66.9081 77.2749 66.9219 77.0575 66.9619H76.8946C76.8393 66.9773 76.7847 66.9957 76.731 67.0173L55.7919 75.648C54.7002 75.8388 53.7436 76.4563 53.2419 77.2776C52.6258 78.2889 52.6327 79.3471 52.7541 80.2091L52.8079 80.263L58.0161 105.785C58.0299 105.792 58.0161 105.825 58.0161 105.839C58.1444 106.517 58.4917 107.191 58.9934 107.686C59.0679 107.822 59.1563 107.95 59.2638 108.065L76.6234 126.961L76.6772 127.017C78.2453 128.585 80.3527 129.461 82.4286 129.461C84.3832 129.448 86.2693 128.736 87.7444 127.452L94.2542 121.804V141.625C94.2542 142.581 95.0355 143.363 95.9898 143.363H101.144C101.625 143.594 102.182 143.594 102.663 143.363H137.653C138.609 143.363 139.389 142.581 139.389 141.625V104.592C139.45 102.3 138.806 100.045 137.545 98.1313V98.0751C137.524 98.042 137.511 98.0028 137.49 97.9674C137.368 97.6629 137.161 97.3984 136.894 97.2069C134.7 94.5168 131.411 92.9611 127.942 92.9719H107.978C104.549 92.9719 100.528 94.553 97.9965 96.6647L97.9443 96.7186L82.8627 110.24L80.5294 107.851C80.7299 107.711 80.9128 107.546 81.0726 107.361C81.6857 106.6 81.9246 105.604 81.7241 104.647L76.5158 78.6365V78.5826H76.4605C76.2853 77.6721 75.7906 76.7962 75.0507 76.3017C74.2901 75.7919 73.4089 75.5958 72.5545 75.5958H65.1228L77.6544 70.4371L83.5134 99.9223C83.747 100.824 84.6459 101.383 85.5571 101.196C86.4683 101.007 87.0714 100.138 86.93 99.2171L81.0188 69.5143C80.7015 67.9124 79.2364 66.9012 77.7105 66.9081H77.7082ZM107.166 70.3833H129.136V73.8585H106.893C106.661 73.8108 106.422 73.8108 106.189 73.8585H102.772L107.112 70.4371L107.166 70.3833ZM108.468 77.3338H128.973C128.166 82.3224 123.976 86.0214 118.72 86.0214C113.466 86.0214 109.275 82.3224 108.468 77.3338ZM56.6601 79.071H72.5545C72.9141 79.071 73.077 79.1663 73.0977 79.1809V79.2325L78.2522 105.136C78.2453 105.142 78.3252 105.136 78.0885 105.136H61.3797L56.1722 79.6685H56.226C56.1914 79.4101 56.2122 79.3217 56.226 79.2348C56.3351 79.2063 56.4496 79.1733 56.5525 79.1248L56.6601 79.071ZM107.98 96.4471H123.222L97.7276 128.212V118.004C97.7276 117.326 97.3281 116.708 96.7104 116.43C96.0912 116.149 95.3659 116.255 94.8527 116.701L85.468 124.847C84.5307 125.646 83.611 125.987 82.4302 125.987C81.406 125.987 80.0968 125.465 79.2294 124.63L79.1757 124.574L64.5812 108.611H76.2992L81.5589 113.823C82.2143 114.475 83.2637 114.498 83.9475 113.877L100.222 99.3248C100.229 99.3179 100.269 99.3317 100.276 99.3248C101.93 97.9674 105.864 96.4471 107.98 96.4471ZM127.671 96.4471H127.944C130.243 96.4471 132.27 97.3161 133.693 98.7288L101.144 139.888H97.7261V133.752L127.671 96.4471ZM135.538 101.931C135.782 102.746 135.945 103.608 135.917 104.538V139.888H105.593L135.538 101.931Z" fill="white"/>
<defs>
<linearGradient id="paint0_linear" x1="-6.02735" y1="2.89293" x2="197.289" y2="208.533" gradientUnits="userSpaceOnUse">
<stop stop-color="#CC1A8C"/>
<stop offset="0.978261" stop-color="#3B27BA"/>
</linearGradient>
</defs>
</svg>
